<svg xmlns="http://www.w3.org/2000/svg" width="53" height="68" viewBox="0 0 53 68"><defs><clipPath id="a"><path fill="#fff" d="M502.5 1183a25.48 25.48 0 0 1 25.52 25.45 25.3 25.3 0 0 1-4.84 14.91h.05L500.91 1251v-17.15a25.48 25.48 0 0 1-23.93-25.4A25.48 25.48 0 0 1 502.5 1183z"/></clipPath><clipPath id="b"><path fill="#fff" d="M502.5 1190.22c10.1 0 18.28 8.16 18.28 18.23a18.25 18.25 0 0 1-18.28 18.23 18.25 18.25 0 0 1-18.28-18.23 18.25 18.25 0 0 1 18.28-18.23z"/></clipPath></defs><path fill="#d7d7d7" d="M26.5 0a25.48 25.48 0 0 1 25.52 25.45 25.3 25.3 0 0 1-4.84 14.91h.05L24.91 68V50.85A25.48 25.48 0 0 1 .98 25.45 25.48 25.48 0 0 1 26.5 0z"/><path fill="#d7d7d7" d="M26.5 0a25.48 25.48 0 0 1 25.52 25.45 25.3 25.3 0 0 1-4.84 14.91h.05L24.91 68V50.85A25.48 25.48 0 0 1 .98 25.45 25.48 25.48 0 0 1 26.5 0z"/><path fill="#b4294b" d="M26.5 0a25.48 25.48 0 0 1 25.52 25.45 25.3 25.3 0 0 1-4.84 14.91h.05L24.91 68V50.85A25.48 25.48 0 0 1 .98 25.45 25.48 25.48 0 0 1 26.5 0z"/><path fill="none" stroke="#fff" stroke-linecap="round" stroke-linejoin="round" stroke-miterlimit="50" stroke-width="2" d="M502.5 1183a25.48 25.48 0 0 1 25.52 25.45 25.3 25.3 0 0 1-4.84 14.91h.05L500.91 1251v-17.15a25.48 25.48 0 0 1-23.93-25.4A25.48 25.48 0 0 1 502.5 1183z" clip-path="url(&quot;#a&quot;)" transform="translate(-476 -1183)"/><path fill="#d7d7d7" d="M26.5 7.22c10.1 0 18.28 8.16 18.28 18.23A18.25 18.25 0 0 1 26.5 43.68 18.25 18.25 0 0 1 8.22 25.45 18.25 18.25 0 0 1 26.5 7.22z"/><path fill="#d7d7d7" d="M26.5 7.22c10.1 0 18.28 8.16 18.28 18.23A18.25 18.25 0 0 1 26.5 43.68 18.25 18.25 0 0 1 8.22 25.45 18.25 18.25 0 0 1 26.5 7.22z"/><path fill="#b4294b" d="M26.5 7.22c10.1 0 18.28 8.16 18.28 18.23A18.25 18.25 0 0 1 26.5 43.68 18.25 18.25 0 0 1 8.22 25.45 18.25 18.25 0 0 1 26.5 7.22z"/><path fill="none" stroke="#fff" stroke-linecap="round" stroke-linejoin="round" stroke-miterlimit="50" stroke-width="6" d="M502.5 1190.22c10.1 0 18.28 8.16 18.28 18.23a18.25 18.25 0 0 1-18.28 18.23 18.25 18.25 0 0 1-18.28-18.23 18.25 18.25 0 0 1 18.28-18.23z" clip-path="url(&quot;#b&quot;)" transform="translate(-476 -1183)"/></svg>