<svg xmlns="http://www.w3.org/2000/svg" width="14" height="20" viewBox="0 0 14 20"><path fill="#b4294b" d="M7.52 2.07c3.7 0 5.37 2.9 5.37 5.76 0 2.53-1.73 5.88-5.15 9.97a.62.62 0 0 1-.07.06.6.6 0 0 1-.07-.06l-.29-.34c-2.22-2.66-5.27-6.3-5.27-9.63 0-3.12 2.51-5.76 5.48-5.76 2.98 0 0 0 0 0zM.95 7.83c0 3.91 3.5 7.91 5.85 10.72 0 .02.38.45.85.45h.04c.47 0 .85-.43.86-.45 2.2-2.63 5.42-6.98 5.42-10.72 0-3.73-2.35-6.88-6.45-6.88C3.97.95.95 4.1.95 7.83zm6.5-2.36c1.2 0 2.18 1.01 2.18 2.26 0 1.24-.95 2.28-2.15 2.28s-2.2-1.04-2.2-2.28c0-1.25.98-2.26 2.18-2.26 1.2 0 0 0 0 0zM4.24 7.75a3.32 3.32 0 0 0 3.25 3.39c1.8 0 3.26-1.52 3.26-3.4a3.32 3.32 0 0 0-3.26-3.38 3.32 3.32 0 0 0-3.25 3.39z"/></svg>