<svg xmlns="http://www.w3.org/2000/svg" width="13" height="21" viewBox="0 0 13 21"><path fill="#b4294b" d="M4.14 1.74l.04.02c.14.5.82 3.33.94 3.86a.8.8 0 0 1-.21.28L3.63 7.01l-.5.44.17.65c.13.48.48 1.55 1.3 3.29a21.22 21.22 0 0 0 1.7 3.1l.4.54.66-.11 1.66-.29c.2-.03.32 0 .35.02h.01c.3.38 2.08 2.77 2.39 3.2-.01.04-.05.13-.16.2-.95.66-2.18 1.25-2.58 1.26-1.84-.76-3.87-3.35-5.74-7.3C1.43 8.04.73 4.82 1.31 2.92c.25-.3 1.5-.88 2.59-1.2a.43.43 0 0 1 .24.01c.08.03 0 0 0 0zM3.62.71C3.6.7.63 1.58.32 2.56c-.9 2.75.6 6.9 2.01 9.9 1.42 3 3.66 6.79 6.36 7.85l.03.01c.95.34 3.47-1.37 3.49-1.4.67-.46.75-1.22.45-1.64-.18-.26-2.21-3-2.47-3.32a1.03 1.03 0 0 0-.46-.3 1.8 1.8 0 0 0-.85-.08c-.3.04-1.25.21-1.7.3-.26-.37-.83-1.25-1.63-2.95-.79-1.68-1.11-2.69-1.23-3.11.36-.3 1.08-.93 1.3-1.14.43-.39.64-.86.55-1.26-.09-.38-.9-3.7-.99-4.02-.08-.3-.35-.54-.68-.66-.26-.1-.57-.11-.88-.03z"/></svg>