<svg xmlns="http://www.w3.org/2000/svg" width="19" height="18" viewBox="0 0 19 18"><path fill="#434343" d="M4.32 2.05h.05l2.19 3.32c0 .05-.02.17-.11.34L5.62 7.2l-.33.58.39.55c.28.41.97 1.3 2.33 2.66a21.1 21.1 0 0 0 2.65 2.34l.55.38.59-.33 1.47-.83a.75.75 0 0 1 .35-.1c.41.25 2.88 1.9 3.32 2.2.01.04 0 .14-.08.25-.67.93-1.63 1.9-2 2.05-1.99-.1-4.78-1.85-7.87-4.94C3.9 8.9 2.15 6.12 2.06 4.13c.14-.37 1.11-1.33 2.03-2a.42.42 0 0 1 .23-.08c.08 0 0 0 0 0zm-.83-.8C3.46 1.29.97 3.1 1 4.13 1.09 7 3.9 10.4 6.24 12.75c2.34 2.34 5.74 5.16 8.64 5.25h.02c1.02 0 2.8-2.47 2.82-2.49.47-.67.3-1.4-.13-1.7-.26-.19-3.1-2.08-3.45-2.3a1 1 0 0 0-.53-.13c-.26 0-.55.07-.83.22l-1.51.85c-.35-.25-1.19-.9-2.51-2.22a20.58 20.58 0 0 1-2.22-2.52c.23-.4.71-1.23.85-1.5.27-.52.3-1.03.08-1.38L5.19 1.38C5.01 1.13 4.68 1 4.32 1c-.28 0-.58.09-.83.27z"/></svg>